<?xml version="1.0" encoding="UTF-8"?>
<svg id="_레이어_2" data-name="레이어 2" xmlns="http://www.w3.org/2000/svg" viewBox="0 0 250 302">
  <g id="_레이어_1-2" data-name="레이어 1">
    <g>
      <path d="M205,90c-24.81,0-45-20.19-45-45S180.19,0,205,0s45,20.19,45,45-20.19,45-45,45ZM205,22c-12.68,0-23,10.32-23,23s10.32,23,23,23,23-10.32,23-23-10.32-23-23-23Z"/>
      <path d="M45,302c-24.81,0-45-20.19-45-45s20.19-45,45-45,45,20.19,45,45-20.19,45-45,45ZM45,234c-12.68,0-23,10.32-23,23s10.32,23,23,23,23-10.32,23-23-10.32-23-23-23Z"/>
      <rect x="61" y="105" width="128" height="20"/>
      <rect x="61" y="141" width="128" height="20"/>
      <rect x="61" y="177" width="128" height="20"/>
    </g>
  </g>
</svg>